<svg width="256" height="256" viewBox="0 0 256 256" fill="none" xmlns="http://www.w3.org/2000/svg">
<path d="M24 108H44V156H32C28.8174 156 25.7652 157.264 23.5147 159.515C21.2643 161.765 20 164.817 20 168C20 171.183 21.2643 174.235 23.5147 176.485C25.7652 178.736 28.8174 180 32 180H224C227.183 180 230.235 178.736 232.485 176.485C234.736 174.235 236 171.183 236 168C236 164.817 234.736 161.765 232.485 159.515C230.235 157.264 227.183 156 224 156H212V108H232C234.613 108 237.154 107.148 239.239 105.572C241.323 103.996 242.836 101.783 243.547 99.2685C244.259 96.7544 244.131 94.0767 243.182 91.6422C242.233 89.2077 240.515 87.1494 238.29 85.78L134.29 21.78C132.399 20.6158 130.221 19.9994 128 19.9994C125.779 19.9994 123.601 20.6158 121.71 21.78L17.71 85.78C15.4847 87.1494 13.7671 89.2077 12.8182 91.6422C11.8694 94.0767 11.741 96.7544 12.4527 99.2685C13.1644 101.783 14.6772 103.996 16.7614 105.572C18.8455 107.148 21.3871 108 24 108ZM68 108H92V156H68V108ZM140 108V156H116V108H140ZM188 156H164V108H188V156ZM128 46.09L189.6 84H66.4L128 46.09ZM252 208C252 211.183 250.736 214.235 248.485 216.485C246.235 218.736 243.183 220 240 220H16C12.8174 220 9.76516 218.736 7.51472 216.485C5.26428 214.235 4 211.183 4 208C4 204.817 5.26428 201.765 7.51472 199.515C9.76516 197.264 12.8174 196 16 196H240C243.183 196 246.235 197.264 248.485 199.515C250.736 201.765 252 204.817 252 208Z" fill="black"/>
</svg>
